<mxfile host="app.diagrams.net" modified="2023-06-05T08:12:31.470Z" agent="Mozilla/5.0 (Windows NT 10.0; Win64; x64) AppleWebKit/537.36 (KHTML, like Gecko) Chrome/114.0.0.0 Safari/537.36" etag="FiNkb5aUJBiQnlsW2QWQ" version="21.3.7" type="device">
  <diagram name="Page-1" id="5f0bae14-7c28-e335-631c-24af17079c00">
    <mxGraphModel dx="1914" dy="917" grid="1" gridSize="10" guides="1" tooltips="1" connect="1" arrows="1" fold="1" page="1" pageScale="1" pageWidth="1100" pageHeight="850" background="none" math="0" shadow="0">
      <root>
        <mxCell id="0" />
        <mxCell id="1" parent="0" />
        <mxCell id="hqv2mcZFoI17hjJzgC3b-7" value="&lt;font style=&quot;font-size: 14px&quot;&gt;&lt;span style=&quot;color: rgb(51 , 51 , 51) ; background-color: rgb(255 , 255 , 255)&quot;&gt;&lt;font face=&quot;Times New Roman&quot;&gt;«&lt;/font&gt;&lt;/span&gt;&lt;font face=&quot;Times New Roman&quot;&gt;device&lt;/font&gt;&lt;/font&gt;&lt;span style=&quot;color: rgb(51 , 51 , 51) ; background-color: rgb(255 , 255 , 255)&quot;&gt;&lt;font face=&quot;Times New Roman&quot;&gt;&lt;font&gt;&lt;font size=&quot;3&quot;&gt;»&lt;br&gt;&lt;/font&gt;&lt;/font&gt;&lt;span style=&quot;font-size: 14px;&quot;&gt;:DB Server&lt;/span&gt;&lt;br&gt;&lt;/font&gt;&lt;/span&gt;" style="verticalAlign=top;align=center;spacingTop=8;spacingLeft=2;spacingRight=12;shape=cube;size=10;direction=south;fontStyle=4;html=1;rounded=0;shadow=0;comic=0;labelBackgroundColor=none;strokeWidth=1;fontFamily=Verdana;fontSize=12" parent="1" vertex="1">
          <mxGeometry x="550" y="180" width="180" height="145" as="geometry" />
        </mxCell>
        <mxCell id="hqv2mcZFoI17hjJzgC3b-16" value="&lt;font style=&quot;font-size: 14px&quot;&gt;&lt;span style=&quot;color: rgb(51 , 51 , 51) ; background-color: rgb(255 , 255 , 255)&quot;&gt;&lt;font face=&quot;Times New Roman&quot;&gt;«&lt;/font&gt;&lt;/span&gt;&lt;font face=&quot;Times New Roman&quot;&gt;device&lt;/font&gt;&lt;/font&gt;&lt;span style=&quot;color: rgb(51 , 51 , 51) ; background-color: rgb(255 , 255 , 255)&quot;&gt;&lt;font face=&quot;Times New Roman&quot;&gt;&lt;font&gt;&lt;font size=&quot;3&quot;&gt;»&lt;br&gt;&lt;/font&gt;&lt;span style=&quot;font-size: 14px&quot;&gt;:UserClient&lt;/span&gt;&lt;/font&gt;&lt;br&gt;&lt;/font&gt;&lt;/span&gt;" style="verticalAlign=top;align=center;spacingTop=8;spacingLeft=2;spacingRight=12;shape=cube;size=10;direction=south;fontStyle=4;html=1;rounded=0;shadow=0;comic=0;labelBackgroundColor=none;strokeWidth=1;fontFamily=Verdana;fontSize=12" parent="1" vertex="1">
          <mxGeometry x="240" y="180" width="180" height="145" as="geometry" />
        </mxCell>
        <mxCell id="hqv2mcZFoI17hjJzgC3b-18" style="edgeStyle=orthogonalEdgeStyle;rounded=0;orthogonalLoop=1;jettySize=auto;html=1;entryX=0.421;entryY=1;entryDx=0;entryDy=0;entryPerimeter=0;strokeWidth=1;endArrow=none;endFill=0;exitX=0.239;exitY=0.002;exitDx=0;exitDy=0;exitPerimeter=0;" parent="1" source="hqv2mcZFoI17hjJzgC3b-16" target="hqv2mcZFoI17hjJzgC3b-7" edge="1">
          <mxGeometry relative="1" as="geometry">
            <mxPoint x="291" y="252" as="sourcePoint" />
            <mxPoint x="650" y="220" as="targetPoint" />
            <Array as="points">
              <mxPoint x="420" y="241" />
            </Array>
          </mxGeometry>
        </mxCell>
        <mxCell id="hqv2mcZFoI17hjJzgC3b-20" value="&lt;font face=&quot;Times New Roman&quot; style=&quot;font-size: 14px&quot;&gt;TCP&lt;/font&gt;" style="edgeLabel;html=1;align=center;verticalAlign=middle;resizable=0;points=[];" parent="hqv2mcZFoI17hjJzgC3b-18" vertex="1" connectable="0">
          <mxGeometry x="-0.1447" y="-1" relative="1" as="geometry">
            <mxPoint x="20" y="-11" as="offset" />
          </mxGeometry>
        </mxCell>
        <mxCell id="BKK9GejpKAlSGVByyzNE-1" value="«artifact»&lt;br&gt;&lt;b&gt;MySQL DB&lt;/b&gt;" style="html=1;whiteSpace=wrap;rounded=1;" parent="1" vertex="1">
          <mxGeometry x="585" y="246.25" width="110" height="50" as="geometry" />
        </mxCell>
        <mxCell id="BKK9GejpKAlSGVByyzNE-2" value="«artifact»&lt;br&gt;&lt;b&gt;Program&lt;/b&gt;" style="html=1;whiteSpace=wrap;rounded=1;" parent="1" vertex="1">
          <mxGeometry x="275" y="246.25" width="110" height="50" as="geometry" />
        </mxCell>
      </root>
    </mxGraphModel>
  </diagram>
</mxfile>
